first trial
nRows=25
nColumns=38

# SIMM Motion File Header:
name Sujet_01_velo_100.mvnx
datacolumns 38
datarows 25
otherdata 1
range 8.2830 8.6830
endheader
time pelvis_tilt  pelvis_list  pelvis_rotation  pelvis_tx  pelvis_ty  pelvis_tz  hip_flexion_r  hip_adduction_r  hip_rotation_r  knee_angle_r  ankle_angle_r  subtalar_angle_r  mtp_angle_r  hip_flexion_l  hip_adduction_l  hip_rotation_l  knee_angle_l  ankle_angle_l  subtalar_angle_l  mtp_angle_l  lumbar_extension  lumbar_bending  lumbar_rotation  arm_flex_r  arm_add_r  arm_rot_r  elbow_flex_r  pro_sup_r  wrist_flex_r  wrist_dev_r  arm_flex_l  arm_add_l  arm_rot_l  elbow_flex_l  pro_sup_l  wrist_flex_l  wrist_dev_l
8.2830	-11.5393	2.5103	-8.9350	0.0000	1.2500	-0.0000	72.1703	-13.9072	-4.8256	99.7552	1.4837	-2.3997	-0.0000	57.8092	-15.8731	-21.1054	46.6058	-21.6019	26.3750	0.0000	-19.1373	0.8991	0.0359	90.4502	-20.7036	43.6201	11.2793	103.5953	-16.2370	4.3806	87.7041	-18.3107	53.4845	9.0420	107.0834	-18.5002	9.3935	
8.3000	-11.4087	2.2519	-10.2144	0.0000	1.2500	-0.0000	76.1374	-14.0963	-4.9585	103.5434	3.9656	-1.9827	-0.0000	52.7432	-16.1347	-23.5534	42.3623	-23.5742	26.7556	0.0000	-19.2629	0.7480	0.6949	90.3962	-19.9227	43.2984	11.3133	104.3611	-16.2036	4.4609	86.9204	-19.0144	53.6594	9.3923	106.8938	-18.6213	9.2216	
8.3160	-11.3784	2.1770	-11.1737	0.0000	1.2500	-0.0000	79.9346	-14.3327	-4.8487	105.4886	5.8138	-1.2863	-0.0000	48.7087	-16.3130	-25.1493	39.6382	-25.3345	27.0831	0.0000	-19.3159	0.4980	1.3284	89.9726	-19.1461	42.4923	11.1965	105.3210	-16.1040	4.5921	86.2335	-19.2814	53.7310	9.4569	106.7840	-18.7752	9.0810	
8.3330	-11.4323	2.2061	-11.9266	0.0000	1.2500	-0.0000	83.4916	-14.6070	-4.5509	105.8849	7.1585	-0.4748	0.0000	45.4852	-16.5085	-26.0969	38.2482	-26.7053	27.3055	0.0000	-19.3280	0.1978	1.9340	89.4592	-18.4440	41.4858	11.0155	106.3261	-15.9908	4.7298	85.6458	-19.2949	53.7705	9.3785	106.7188	-18.9351	8.9643	
8.3500	-11.6156	2.1116	-12.4577	0.0000	1.2500	-0.0000	86.2168	-14.8761	-3.9457	104.7722	7.8043	0.0730	0.0000	43.5059	-16.7382	-26.4563	38.4864	-26.8514	27.0541	0.0000	-19.3384	0.0032	2.4499	89.5990	-18.1660	40.8953	10.9486	106.9101	-15.9266	4.7914	85.4598	-19.2055	53.9425	9.2452	106.6249	-18.9919	8.8873	
8.3660	-12.0121	1.7218	-12.7224	0.0000	1.2500	-0.0000	88.0592	-15.1741	-2.6086	102.0010	7.6874	-0.0497	0.0000	43.0698	-17.0889	-26.1551	40.6405	-25.1253	25.8547	0.0000	-19.3696	0.0168	2.8968	91.0269	-18.6694	41.1081	11.1292	106.7492	-15.9499	4.7120	85.9117	-18.9960	54.3629	9.0187	106.4642	-18.8471	8.8657	
8.3830	-12.5372	1.2077	-12.7701	0.0000	1.2500	-0.0000	89.0805	-15.4909	-0.9313	97.7736	6.9075	-0.4742	0.0000	43.8905	-17.5522	-25.2254	44.3942	-22.2403	24.0464	-0.0000	-19.3996	0.1328	3.2554	93.1072	-19.6023	41.7494	11.4186	106.1677	-16.0216	4.5566	86.7626	-18.6804	54.9110	8.7408	106.2765	-18.5993	8.8830	
8.4000	-12.9800	0.8588	-12.7208	0.0000	1.2500	-0.0000	88.8449	-15.7601	-0.0393	92.6081	5.4854	-0.3531	0.0000	45.5292	-17.9664	-23.8955	49.1608	-19.3505	22.5090	-0.0000	-19.4023	0.1973	3.4006	94.6523	-20.2487	42.2594	11.5845	105.6727	-16.0876	4.4367	87.6045	-18.4592	55.4023	8.6161	106.1041	-18.4339	8.9099	
8.4160	-13.2988	0.7629	-12.6652	0.0000	1.2500	-0.0000	87.0408	-15.8547	-0.4229	86.2949	3.1691	0.9523	-0.0000	47.9707	-18.2700	-22.1105	55.1337	-16.5962	21.6462	-0.0000	-19.3357	0.1616	3.2300	95.1018	-20.1786	42.3456	11.4983	105.5239	-16.1382	4.4147	88.3217	-18.5011	55.7918	8.7697	105.8994	-18.4589	8.9343	
8.4330	-13.5356	0.8344	-12.5074	0.0000	1.2500	-0.0000	83.9708	-15.8467	-1.6057	79.0190	0.1520	2.8529	-0.0000	51.2391	-18.4195	-19.9267	62.2122	-13.7693	21.0705	0.0000	-19.2444	0.0787	2.8443	95.0079	-19.8179	42.2829	11.2892	105.4610	-16.1835	4.4279	89.0340	-18.6391	56.1316	9.0734	105.7107	-18.5657	8.9706	
8.4500	-13.6027	1.1015	-12.0826	0.0000	1.2500	-0.0000	80.1110	-15.9617	-3.3034	71.8567	-2.8871	4.3730	0.0000	54.9359	-18.3097	-17.7858	69.3637	-11.4627	20.6370	0.0000	-19.2342	-0.0506	2.4201	94.8328	-19.7299	42.3327	11.1106	105.2117	-16.1987	4.4004	89.6885	-18.5720	56.3877	9.3491	105.7219	-18.6148	9.0313	
8.4660	-13.4079	1.6445	-11.2719	0.0000	1.2500	-0.0000	75.3572	-16.2619	-5.7347	65.0142	-5.8293	5.1199	0.0000	58.9872	-17.8065	-15.9153	76.5396	-9.9405	20.4482	-0.0000	-19.3721	-0.2669	2.0226	94.7366	-20.1891	42.6702	10.9938	104.5743	-16.1572	4.2840	90.3186	-18.1182	56.5544	9.5267	106.0696	-18.5318	9.1252	
8.4830	-13.0301	2.3743	-10.2013	0.0000	1.2500	-0.0000	69.8132	-16.5039	-8.8139	58.2691	-8.7632	5.4886	-0.0000	63.4225	-17.0085	-14.2411	83.7911	-8.9486	20.4953	0.0000	-19.5967	-0.5268	1.5869	94.5568	-20.9188	43.1201	10.9120	103.7530	-16.0852	4.1273	90.8811	-17.4557	56.6288	9.6802	106.6171	-18.3914	9.2427	
8.5000	-12.6443	3.0687	-9.0708	0.0000	1.2500	-0.0000	64.2496	-16.5866	-11.7835	52.0516	-11.2934	5.6611	0.0000	68.0150	-16.2138	-12.7031	90.1440	-8.3188	20.4891	-0.0000	-19.8170	-0.7053	1.0940	94.2680	-21.6585	43.4111	10.9298	103.0832	-16.0371	3.9994	91.2126	-16.8266	56.5862	9.8471	107.1349	-18.2771	9.3679	
8.5160	-12.2813	3.6805	-7.8685	0.0000	1.2500	-0.0000	58.5669	-16.5549	-14.5725	46.1554	-13.3183	5.6955	0.0000	72.9053	-15.5732	-11.2434	95.4149	-8.0632	20.3806	0.0000	-20.0169	-0.7442	0.4931	93.8878	-22.4076	43.4050	11.0986	102.7379	-16.0340	3.9220	91.2344	-16.3282	56.4589	10.0440	107.4904	-18.2289	9.5015	
8.5330	-11.9108	4.2564	-6.6051	0.0000	1.2500	-0.0000	52.8683	-16.3568	-17.2466	40.8038	-14.9319	5.5237	-0.0000	77.9647	-14.9324	-9.9240	99.7288	-8.1745	20.2358	0.0000	-20.2063	-0.7025	-0.1647	93.3944	-23.1677	43.2368	11.3631	102.5402	-16.0548	3.8730	91.0339	-15.8688	56.2227	10.2531	107.8161	-18.2065	9.6434	
8.5500	-11.6305	4.7306	-5.5040	0.0000	1.2500	-0.0000	48.1945	-16.0425	-19.1433	37.0976	-16.0394	5.1397	-0.0000	82.5887	-14.1617	-8.7415	102.5370	-8.4516	19.9115	-0.0000	-20.3283	-0.6364	-0.7467	92.7047	-23.6811	43.0430	11.6261	102.3007	-16.0894	3.8556	90.7048	-15.4089	55.7752	10.4575	108.2788	-18.1731	9.7772	
8.5660	-11.4728	5.0749	-4.6053	0.0000	1.2500	-0.0000	44.7353	-15.8134	-19.9320	35.3480	-16.5849	4.4980	-0.0000	86.8539	-13.2170	-7.5813	103.5047	-8.9347	19.2208	-0.0000	-20.3427	-0.5540	-1.2267	91.5110	-23.7624	42.7993	11.8748	101.9353	-16.1353	3.8855	90.0565	-14.8416	54.8792	10.6465	109.0930	-18.1039	9.9080	
8.5830	-11.4142	5.3259	-3.8635	0.0000	1.2500	-0.0000	42.2410	-15.7390	-19.8989	35.2344	-16.6418	3.6256	-0.0000	90.6857	-12.1787	-6.4976	102.9811	-9.5410	18.3076	0.0000	-20.2887	-0.4513	-1.6316	90.1302	-23.5884	42.5416	12.1201	101.5302	-16.1951	3.9468	89.2868	-14.2699	53.7781	10.8240	110.0410	-18.0244	10.0305	
8.6000	-11.4744	5.5183	-3.3720	0.0000	1.2500	-0.0000	41.0819	-15.7894	-19.2711	36.9147	-16.3130	2.6332	-0.0000	93.2674	-11.1675	-5.6458	101.4264	-9.8994	17.5278	0.0000	-20.2311	-0.3659	-1.9079	89.4104	-23.4586	42.4825	12.3029	101.1536	-16.2672	3.9947	89.0618	-13.9721	53.0777	11.0007	110.6425	-17.9741	10.1125	
8.6160	-11.7257	5.7111	-3.2094	0.0000	1.2500	-0.0000	41.6397	-16.0023	-17.9076	40.8376	-15.4966	1.3657	-0.0000	94.3051	-10.1546	-4.8500	98.9793	-9.5357	16.8224	0.0000	-20.2023	-0.3171	-2.0422	89.9645	-23.5389	42.7831	12.4040	100.7997	-16.3690	4.0079	89.9371	-14.1926	53.1219	11.2359	110.6349	-17.9820	10.1306	
8.6330	-12.0989	5.8459	-3.2957	0.0000	1.2500	-0.0000	43.5527	-16.3036	-15.9142	46.5516	-14.3196	-0.0416	-0.0000	94.1133	-9.2339	-4.1563	95.4872	-8.8997	16.1950	0.0000	-20.1709	-0.2844	-2.0475	91.1768	-23.6695	43.2767	12.4421	100.4735	-16.4832	4.0077	91.3530	-14.6919	53.5652	11.4751	110.2827	-18.0185	10.1084	
8.6500	-12.3987	5.7819	-3.4894	0.0000	1.2500	-0.0000	46.0755	-16.4780	-13.9011	52.8893	-13.1762	-0.9937	-0.0000	92.8125	-8.7246	-4.0335	90.9661	-9.1573	16.2598	-0.0000	-20.1064	-0.2453	-1.9091	92.0391	-23.6775	43.6609	12.4169	100.2588	-16.5558	4.0131	92.2902	-15.0262	53.9623	11.5650	109.8972	-18.0357	10.0843	
8.6660	-12.5588	5.4232	-3.7060	0.0000	1.2500	-0.0000	49.0548	-16.4253	-12.0391	59.7191	-12.2700	-1.0265	-0.0000	90.3071	-8.7182	-4.7632	85.0388	-11.1089	17.5568	0.0000	-19.9597	-0.1897	-1.5819	92.0727	-23.5068	43.8098	12.2625	100.1716	-16.5688	4.0206	92.2143	-14.9183	54.1367	11.3728	109.5496	-18.0073	10.0786	
8.6830	-12.6421	4.8653	-4.0315	0.0000	1.2500	-0.0000	52.6318	-16.2016	-10.2126	67.1892	-11.3611	-0.5200	0.0000	86.6974	-9.0624	-6.1150	78.0363	-13.9205	19.4992	-0.0000	-19.7780	-0.1252	-1.1126	91.7541	-23.2178	43.8456	12.0464	100.1959	-16.5404	4.0340	91.6583	-14.6418	54.2620	11.0308	109.1674	-17.9596	10.0712	
